<svg width="620" height="620" viewBox="0 0 620 620" fill="none" xmlns="http://www.w3.org/2000/svg">
<g opacity="0.85">
<path d="M309.246 5L311.275 2.97087L309.246 0.941739L307.217 2.97087L309.246 5ZM615 310.754L617.029 312.783L619.058 310.754L617.029 308.725L615 310.754ZM310.754 615L308.725 617.029L310.754 619.058L312.783 617.029L310.754 615ZM5 309.246L2.97087 307.217L0.941739 309.246L2.97087 311.275L5 309.246ZM309.344 45.31L311.373 43.2808L309.344 41.2517L307.314 43.2808L309.344 45.31ZM574.688 310.654L576.717 312.683L578.746 310.654L576.717 308.625L574.688 310.654ZM310.653 574.689L308.624 576.718L310.653 578.747L312.682 576.718L310.653 574.689ZM45.3086 309.345L43.2794 307.316L41.2503 309.345L43.2794 311.374L45.3086 309.345ZM309.998 45.9646L312.027 43.9355L312.027 43.9354L309.998 45.9646ZM135.636 401.174V404.044H141.375V401.174H135.636ZM254.947 310L252.612 308.332L251.44 309.973L252.586 311.631L254.947 310ZM310.271 232.547L312.606 234.215L314.113 232.105L312.166 230.393L310.271 232.547ZM310.271 160.868L312.209 162.984L314.388 160.988L312.329 158.868L310.271 160.868ZM277.558 127.193V124.323H270.769L275.499 129.192L277.558 127.193ZM365.113 310L367.467 311.641L368.625 309.98L367.448 308.332L365.113 310ZM309.79 232.547L307.894 230.393L305.947 232.105L307.454 234.215L309.79 232.547ZM309.79 160.868L307.731 158.868L305.672 160.988L307.852 162.984L309.79 160.868ZM342.503 127.193L344.561 129.192L349.291 124.323H342.503V127.193ZM309.79 389.377L307.429 391.008C307.963 391.782 308.843 392.245 309.784 392.247C310.724 392.249 311.606 391.789 312.144 391.018L309.79 389.377ZM307.217 7.02913L612.971 312.783L617.029 308.725L311.275 2.97087L307.217 7.02913ZM612.971 308.725L308.725 612.971L312.783 617.029L617.029 312.783L612.971 308.725ZM312.783 612.971L7.02913 307.217L2.97087 311.275L308.725 617.029L312.783 612.971ZM7.02913 311.275L311.275 7.02913L307.217 2.97087L2.97087 307.217L7.02913 311.275ZM572.659 308.625L308.624 572.66L312.682 576.718L576.717 312.683L572.659 308.625ZM312.682 572.66L47.3377 307.316L43.2794 311.374L308.624 576.718L312.682 572.66ZM47.3377 311.374L311.373 47.3391L307.314 43.2808L43.2794 307.316L47.3377 311.374ZM307.314 47.3391L307.969 47.9937L312.027 43.9354L311.373 43.2808L307.314 47.3391ZM307.969 47.9937L572.659 312.683L576.717 308.625L312.027 43.9355L307.969 47.9937ZM312.868 230.141V45.9646H307.129V230.141H312.868ZM313.522 574.679L312.868 384.149L307.129 384.168L307.783 574.699L313.522 574.679ZM141.375 401.174C141.375 307.648 216.254 233.011 309.792 233.011V227.272C213.096 227.272 135.636 304.467 135.636 401.174H141.375ZM309.792 233.011C403.314 233.011 478.625 308.719 478.625 402.26H484.364C484.364 305.567 406.502 227.272 309.792 227.272V233.011ZM477.54 216.376C477.54 310.012 403.221 388.912 309.792 388.912V394.652C406.596 394.652 483.279 312.973 483.279 216.376H477.54ZM309.792 388.912C216.353 388.912 141.375 309.774 141.375 216.148H135.636C135.636 312.756 212.998 394.652 309.792 394.652V388.912ZM257.282 311.668L312.365 234.552L307.695 231.216L252.612 308.332L257.282 311.668ZM312.365 234.552L312.606 234.215L307.936 230.879L307.695 231.216L312.365 234.552ZM312.166 230.393C312.091 230.327 312.016 230.26 311.941 230.193L308.119 234.475C308.205 234.552 308.291 234.627 308.376 234.702L312.166 230.393ZM311.941 230.193C305.647 224.576 298.229 214.554 296.102 202.647C294.015 190.967 296.939 177.081 311.977 163.197L308.084 158.98C291.703 174.104 287.998 189.924 290.452 203.657C292.865 217.163 301.156 228.26 308.119 234.475L311.941 230.193ZM311.977 163.197C312.054 163.126 312.131 163.055 312.209 162.984L308.333 158.751C308.25 158.827 308.166 158.904 308.084 158.98L311.977 163.197ZM312.329 158.868L312.088 158.62L307.972 162.62L308.212 162.867L312.329 158.868ZM312.089 158.62L279.616 125.193L275.499 129.192L307.972 162.62L312.089 158.62ZM367.448 308.332L312.365 231.216L307.695 234.552L362.778 311.668L367.448 308.332ZM312.365 231.216L312.125 230.88L307.454 234.215L307.695 234.552L312.365 231.216ZM311.685 234.702C311.77 234.627 311.855 234.552 311.941 234.475L308.119 230.193C308.044 230.261 307.969 230.327 307.894 230.393L311.685 234.702ZM311.941 234.475C318.904 228.26 327.196 217.163 329.609 203.657C332.062 189.924 328.358 174.104 311.977 158.98L308.084 163.197C323.121 177.081 326.046 190.967 323.959 202.647C321.832 214.554 314.413 224.576 308.119 230.193L311.941 234.475ZM311.977 158.98C311.894 158.904 311.811 158.828 311.728 158.751L307.852 162.984C307.929 163.055 308.006 163.126 308.084 163.197L311.977 158.98ZM311.848 162.867L312.089 162.619L307.972 158.621L307.731 158.868L311.848 162.867ZM312.089 162.62L344.561 129.192L340.444 125.193L307.972 158.62L312.089 162.62ZM252.586 311.631L307.429 391.008L312.151 387.746L257.308 308.369L252.586 311.631ZM312.144 391.018L367.467 311.641L362.759 308.359L307.435 387.736L312.144 391.018ZM378.148 115.779L334.05 232.011L339.416 234.047L383.514 117.815L378.148 115.779ZM428.283 164.601L366.287 238.399L370.681 242.091L432.678 168.293L428.283 164.601ZM476.828 211.706L401.711 254.102L404.532 259.1L479.649 216.704L476.828 211.706ZM534.475 268.097L438.237 284.561L439.204 290.218L535.443 273.754L534.475 268.097ZM534.089 347.333L439.215 330.746L438.226 336.4L533.1 352.987L534.089 347.333ZM478.575 404.109L404.543 361.869L401.699 366.854L475.731 409.094L478.575 404.109ZM432.664 451.412L371.63 379.818L367.262 383.542L428.297 455.136L432.664 451.412ZM383.741 503.281L340.864 388.851L335.489 390.865L378.367 505.295L383.741 503.281ZM235.177 117.823L279.691 234.055L285.051 232.002L240.536 115.771L235.177 117.823ZM187.82 170.906L248.435 242.105L252.805 238.384L192.19 167.186L187.82 170.906ZM138.776 216.993L214.589 259.11L217.377 254.093L141.563 211.975L138.776 216.993ZM83.2464 273.754L179.902 290.219L180.865 284.561L84.2102 268.096L83.2464 273.754ZM86.6043 352.989L183.488 336.533L182.527 330.875L85.6432 347.331L86.6043 352.989ZM145.75 408.693L217.43 366.84L214.536 361.883L142.856 403.737L145.75 408.693ZM192.681 453.766L251.853 383.529L247.463 379.831L188.292 450.068L192.681 453.766ZM242.248 502.942L283.62 390.852L278.236 388.865L236.863 500.955L242.248 502.942ZM356.959 446.908C356.662 451.22 355.193 457.706 351.859 463.019C348.586 468.234 343.669 472.138 336.249 472.138V477.877C346.149 477.877 352.697 472.48 356.72 466.07C360.682 459.757 362.341 452.292 362.685 447.303L356.959 446.908ZM256.896 447.303C257.24 452.292 258.899 459.757 262.861 466.07C266.884 472.48 273.432 477.877 283.331 477.877V472.138C275.912 472.138 270.995 468.234 267.722 463.019C264.387 457.706 262.919 451.22 262.622 446.908L256.896 447.303ZM277.558 130.062H342.503V124.323H277.558V130.062ZM336.249 472.138H283.331V477.877H336.249V472.138Z" fill="white"/>
<circle cx="309.999" cy="310" r="23.0915" fill="white"/>
</g>
</svg>
